PathFileType	4	(X/Y/Z)	C:\Users\Basilio\Documents\Thesis Gigler\squatting_fais\c3dfiles\073\SLS_front_pre3\markers_experimental.trc
DataRate	CameraRate	NumFrames	NumMarkers	Units	OrigDataRate	OrigDataStartFrame	OrigNumFrames
200.000000	200.000000	4	61	mm	200.000000	1014	1353
Frame#	Time	FHD			LBHD			RBHD			C7			T10			CLAV			LSHO			LUUPA			LMUPA			LDUPA			LLEP			LMEP			LRAD			LUL			LRFIN			RSHO			RUPA1			RMUPA			RDUPA			RLEP			RMEP			RRAD			RUL			RUFIN			LASI			RASI			USACR			LSACR			RSACR			LTHI1			LTHI2			LTHI3			LTHI4			LLFC			LMFC			LTIB1			LTIB2			LTIB3			LTIB4			LLMAL			LMMAL			LHEE			LMT1			LMT2			LMT5			RTHI			RTHI2			RTHI3			RTHI4			RLFC			RMFC			RTIB1			RTIB2			RTIB3			RTIB4			RLMAL			RMMAL			RHEE			RMT1			RMT2			RMT5			
		X1	Y1	Z1	X2	Y2	Z2	X3	Y3	Z3	X4	Y4	Z4	X5	Y5	Z5	X6	Y6	Z6	X7	Y7	Z7	X8	Y8	Z8	X9	Y9	Z9	X10	Y10	Z10	X11	Y11	Z11	X12	Y12	Z12	X13	Y13	Z13	X14	Y14	Z14	X15	Y15	Z15	X16	Y16	Z16	X17	Y17	Z17	X18	Y18	Z18	X19	Y19	Z19	X20	Y20	Z20	X21	Y21	Z21	X22	Y22	Z22	X23	Y23	Z23	X24	Y24	Z24	X25	Y25	Z25	X26	Y26	Z26	X27	Y27	Z27	X28	Y28	Z28	X29	Y29	Z29	X30	Y30	Z30	X31	Y31	Z31	X32	Y32	Z32	X33	Y33	Z33	X34	Y34	Z34	X35	Y35	Z35	X36	Y36	Z36	X37	Y37	Z37	X38	Y38	Z38	X39	Y39	Z39	X40	Y40	Z40	X41	Y41	Z41	X42	Y42	Z42	X43	Y43	Z43	X44	Y44	Z44	X45	Y45	Z45	X46	Y46	Z46	X47	Y47	Z47	X48	Y48	Z48	X49	Y49	Z49	X50	Y50	Z50	X51	Y51	Z51	X52	Y52	Z52	X53	Y53	Z53	X54	Y54	Z54	X55	Y55	Z55	X56	Y56	Z56	X57	Y57	Z57	X58	Y58	Z58	X59	Y59	Z59	X60	Y60	Z60	X61	Y61	Z61	

1015	5.07	-190.5762176513672	1696.372802734375	-794.951599121094	-327.6168212890626	1674.819091796875	-815.932312011719	-348.7712402343751	1660.160278320313	-681.5408325195314	-385.6776733398439	1552.096801757813	-741.7457275390626	-434.6660766601564	1215.729370117188	-731.6822509765626	-260.2501220703126	1468.705810546875	-746.3378906250001	-292.9755859375001	1505.3154296875	-894.8312988281252	-213.7205352783204	1421.40283203125	-986.4158325195315	-171.5402526855469	1442.033813476563	-966.9628906250002	-151.4229888916016	1392.282348632813	-996.4887695312502	-48.0532684326172	1366.012084960938	-1002.044067382813	-51.73542404174806	1312.423095703125	-955.9819946289065	215.742416381836	1386.018432617188	-899.4697265625002	216.9552001953126	1382.741333007813	-974.120788574219	296.5309448242188	1396.277099609375	-895.391052246094	-268.7942504882813	1501.706298828125	-596.5297241210939	-179.0680694580078	1386.213012695313	-505.3626403808595	-138.1415557861328	1405.822387695313	-521.3114624023439	-118.6777877807617	1352.916259765625	-501.3981018066407	-29.48203659057618	1327.557250976563	-504.2062377929689	-40.15316390991212	1276.073608398438	-568.2509765625001	nan	nan	nan	234.1336059570313	1338.784912109375	-546.6965942382814	313.7880859375001	1344.467529296875	-627.6990966796876	-293.5313415527344	1074.592895507813	-893.037536621094	-249.4231109619141	1033.174926757813	-647.4291381835939	-452.072479248047	1112.246948242188	-731.5538940429689	-470.6398010253907	1087.452758789063	-761.1739501953126	-462.8957824707032	1078.116943359375	-706.0607910156251	-240.0459899902344	768.6392211914065	-947.6741943359377	-185.6082000732422	707.5717163085939	-928.2270507812502	-149.9573364257813	722.6218261718751	-896.7239379882815	-196.2179870605469	650.0426635742189	-924.5084228515627	-181.2792205810547	592.9827880859376	-926.3474731445315	-192.8028717041016	582.7264404296876	-788.2151489257815	-118.3493041992188	400.0645751953126	-876.7816162109377	-168.110824584961	357.2993774414063	-936.8557128906252	-129.7303466796875	353.2653198242188	-911.7719726562502	-126.5302200317383	273.6410827636719	-881.2788696289065	-179.3232421875	152.7982788085938	-916.970397949219	-177.1055145263672	173.791748046875	-831.345153808594	-237.7478485107422	113.2739791870117	-879.9993286132815	-18.74705696105957	124.450798034668	-824.523132324219	-14.21683979034424	127.8744354248047	-862.5699462890627	-43.35173034667969	104.5344924926758	-919.5695800781252	-350.9979553222657	798.7786254882815	-591.3773803710939	-319.4085998535157	740.5498657226564	-595.1188964843751	-286.0373840332032	740.2337036132814	-599.9506835937501	-353.4039916992188	667.5371093750001	-621.4964599609376	-343.2146606445313	517.7381591796876	-648.6053466796876	-345.7630920410157	516.7082519531251	-780.0314941406252	-303.5446472167969	364.3937377929688	-752.1292114257814	-320.8256530761719	277.0162963867188	-691.0126953125001	-297.3907775878907	279.3630676269532	-733.6518554687501	-315.8636779785157	236.8857879638672	-769.041198730469	-365.1428527832032	103.3673782348633	-726.9956054687501	-358.5710754394532	128.5940856933594	-810.4206542968752	-433.1586303710939	84.00565338134767	-783.0256347656252	-209.6138305664063	53.8963088989258	-790.0014648437502	-209.8366851806641	52.92454528808595	-748.2171020507814	-255.1962127685547	35.66400527954102	-701.9638671875001	
1016	5.075	-190.6467895507813	1696.391479492188	-795.3318481445315	-327.6850891113282	1674.773681640625	-816.2817382812502	-348.6987304687501	1660.310302734375	-681.9022827148439	-385.6184082031251	1552.10986328125	-741.9370727539064	-434.1958923339845	1215.706787109375	-731.5868530273439	-260.1778259277344	1468.783447265625	-746.5790405273439	-292.9659729003907	1505.249145507813	-895.1304321289065	-213.7912597656251	1421.25048828125	-986.684020996094	-171.6111297607422	1441.916137695313	-967.310485839844	-151.5221099853516	1392.136352539063	-996.6799926757815	-48.05957031250001	1365.857421875	-1002.360717773438	-51.81164932250978	1312.3046875	-956.279235839844	215.7598724365235	1385.812377929688	-899.9230957031252	217.1211547851563	1382.5478515625	-974.6382446289065	296.4808349609376	1396.05126953125	-895.9485473632815	-268.6089477539063	1502.033325195313	-596.6084594726564	-178.9666442871094	1386.291870117188	-505.5120544433595	-138.0313720703125	1405.872314453125	-521.4766235351564	-118.6301879882813	1352.945068359375	-501.4877014160157	-29.46235847473145	1327.503295898438	-504.2838134765626	-40.1699333190918	1276.005737304688	-568.2657470703126	nan	nan	nan	234.1876373291016	1338.463500976563	-546.6661987304689	313.8069763183594	1344.016723632813	-627.8254394531251	-293.1494750976563	1074.701782226563	-892.960632324219	-248.9243316650391	1033.17138671875	-647.3895263671876	-451.7088928222657	1112.285278320313	-731.3880004882814	-470.2472534179689	1087.506591796875	-761.0052490234376	-462.3720092773439	1078.15087890625	-705.8671875000001	-239.8845367431641	768.5117797851565	-947.5335693359377	-185.6313781738282	707.3413085937501	-928.1172485351565	-149.859115600586	722.3410034179689	-896.7143554687502	-196.3887786865235	649.8009033203126	-924.5291748046877	-181.6923217773438	592.6575317382814	-926.3328247070315	-193.157455444336	582.4753417968751	-788.256042480469	-120.0209197998047	399.3709716796876	-876.760925292969	-170.3774108886719	356.9006652832032	-937.1445312500002	-131.8050689697266	352.6625671386719	-911.7173461914065	-129.143539428711	273.0333557128907	-881.3118896484377	-182.8846893310547	152.5645446777344	-917.1517333984377	-180.4221496582032	173.5001831054688	-831.3663330078127	-241.5449981689454	113.4390869140625	-880.019470214844	-22.38160514831543	123.0446701049805	-824.807556152344	-17.9287395477295	126.4558334350586	-862.8459472656252	-47.41844558715821	103.4789581298828	-919.8701171875002	-350.3664550781251	798.7763671875002	-591.3154296875001	-318.8975830078126	740.4860839843751	-595.2524414062501	-285.4742431640626	740.1939086914064	-600.0493774414064	-352.7376098632813	667.4965820312501	-621.5405273437501	-342.7756958007813	517.7208251953126	-648.6132202148439	-345.5376281738282	516.7305297851564	-780.150329589844	-303.2559204101563	364.3671875000001	-752.2250366210939	-320.5597534179688	276.9794921875001	-691.1629028320314	-297.1962890625001	279.3423767089844	-733.7741088867189	-315.7879333496094	236.8505859375001	-769.1475219726565	-365.1408386230469	103.4209213256836	-727.0134887695314	-358.5656738281251	128.6239929199219	-810.4922485351565	-433.1561584472657	84.0008010864258	-783.0508422851565	-209.6612701416016	53.88207626342775	-790.1014404296877	-209.8219757080079	52.9313316345215	-748.2321166992189	-255.2137145996094	35.7164649963379	-702.0540161132814	
1017	5.08	-190.568588256836	1696.414428710938	-795.816101074219	-327.6731872558594	1674.788452148438	-816.6671142578127	-348.6177062988282	1660.407104492188	-682.2415161132814	-385.5409545898439	1552.134765625	-742.2574462890626	-433.8942871093751	1215.664916992188	-731.4778442382814	-260.0726318359376	1468.84423828125	-746.7829589843751	-292.9983520507813	1505.189208984375	-895.4097290039065	-213.8218994140626	1421.099365234375	-986.975524902344	-171.5601654052735	1441.831909179688	-967.6019287109377	-151.6246795654297	1391.987060546875	-996.9202270507815	-48.15224838256837	1365.6982421875	-1002.657043457031	-51.88891220092775	1312.173095703125	-956.5051269531252	215.7981719970704	1385.669311523438	-900.3144531250002	217.0827941894532	1382.32568359375	-975.1033325195315	296.5128784179688	1395.869506835938	-896.3548583984377	-268.4394226074219	1502.1240234375	-596.9016113281251	-178.8725128173828	1386.356811523438	-505.643035888672	-137.8978271484375	1405.842529296875	-521.6673583984376	-118.5198135375977	1352.94287109375	-501.6038208007814	-29.4060230255127	1327.440185546875	-504.3441467285157	-40.11035156250001	1275.916381835938	-568.2861938476564	nan	nan	nan	234.2801818847657	1338.123291015625	-546.6643676757814	313.9105529785157	1343.5234375	-627.8038940429689	-292.7240905761719	1074.819580078125	-892.893249511719	-248.4703826904297	1033.251586914063	-647.4310913085939	-451.271942138672	1112.332275390625	-731.2420043945314	-469.8547973632814	1087.49560546875	-760.7919921875001	-461.8987426757814	1078.208740234375	-705.6624145507814	-239.6448669433594	768.392272949219	-947.403015136719	-185.5905303955078	707.0856323242189	-928.078552246094	-149.758529663086	722.0407104492189	-896.6784667968752	-196.5623779296876	649.5583496093751	-924.4309082031252	-182.0928649902344	592.3439331054689	-926.2034912109377	-193.460433959961	582.2543945312501	-788.322448730469	-121.7541427612305	398.6597900390626	-876.9336547851565	-171.4156494140625	357.4663696289063	-936.244323730469	-133.7618408203125	352.0387878417969	-911.7492675781252	-131.7415466308594	272.3775329589844	-881.4155273437502	-186.4357452392578	152.2958221435547	-917.170837402344	-183.6009521484375	173.1839752197266	-831.4281005859377	-245.3220367431641	113.6205520629883	-879.985290527344	-26.05480575561524	121.5704956054688	-825.2232666015627	-21.52982902526856	125.026481628418	-863.1817626953127	-51.41850662231447	102.4027481079102	-920.1427001953127	-349.8847961425782	798.758239746094	-591.3027343750001	-318.3433532714844	740.4502563476564	-595.4176635742189	-284.9902343750001	740.1992187500001	-600.1665649414064	-352.2214965820313	667.4968872070314	-621.5114135742189	-342.3529052734376	517.7155761718751	-648.6592407226564	-345.2537231445313	516.7670898437501	-780.219177246094	-303.0756530761719	364.3802185058594	-752.3851318359376	-320.2997741699219	276.8768920898438	-691.3126220703126	-296.9666442871094	279.2800292968751	-733.8284301757814	-315.6440429687501	236.8207397460938	-769.2307739257815	-365.0706176757813	103.4817047119141	-727.0823364257814	-358.5182189941407	128.5889739990235	-810.4985351562502	-433.1393432617189	84.05975341796876	-783.1170654296877	-209.6322631835938	53.86154556274415	-790.0892333984377	-209.8266601562501	52.94419097900392	-748.2453002929689	-255.1870117187501	35.75343704223634	-702.0390014648439	
1018	5.085	-190.5401458740235	1696.439086914063	-796.266296386719	-327.7476806640626	1674.767211914063	-817.089538574219	-348.5440979003907	1660.5107421875	-682.5983886718751	-385.4282531738282	1552.14990234375	-742.4929809570314	-433.6111755371095	1215.645629882813	-731.3626098632814	-260.0885925292969	1468.900512695313	-747.0429687500001	-292.9846801757813	1505.10888671875	-895.6578369140627	-213.6448364257813	1420.539672851563	-986.7569580078127	-171.6332244873047	1441.669067382813	-967.8926391601565	-151.705795288086	1391.841796875	-997.2044677734377	-48.27115631103517	1365.5078125	-1003.021606445313	-51.90641021728517	1312.03125	-956.8461914062502	215.8281707763672	1385.500122070313	-900.722839355469	216.8890533447266	1382.171264648438	-975.5388183593752	296.5001220703126	1395.620239257813	-896.7754516601565	-268.3062438964844	1502.01806640625	-597.2311401367189	-178.7261047363282	1386.398681640625	-505.8363037109376	-137.7771148681641	1405.877197265625	-521.7448120117189	-118.4276351928711	1352.928588867188	-501.6879272460939	-29.34461402893067	1327.39208984375	-504.4037170410157	-40.08478164672852	1275.81494140625	-568.3487548828126	nan	nan	nan	234.3920288085938	1337.821899414063	-546.6539916992189	314.1048278808594	1343.105224609375	-627.6630859375001	-292.3436279296876	1074.9150390625	-892.823669433594	-248.0439758300782	1033.282348632813	-647.4165649414064	-450.8225708007814	1112.414916992188	-731.0427246093751	-469.3944396972657	1087.547485351563	-760.6548461914064	-460.996307373047	1078.056518554688	-705.7642822265626	-239.4430541992188	768.238952636719	-947.2805175781252	-185.5659637451172	706.7940063476564	-928.0659790039065	-149.6786651611328	721.6937255859376	-896.7072753906252	-196.6528778076172	649.2843627929689	-924.3218994140627	-182.4161224365235	592.0440063476564	-926.1331787109377	-193.7407989501954	582.0784912109376	-788.3296508789065	-123.3580398559571	397.9716796875001	-876.968444824219	-173.7269897460938	357.0467834472657	-936.142761230469	-136.0937652587891	351.3075256347657	-912.0484619140627	-134.2829895019532	271.8179931640626	-881.5388183593752	-189.8651580810547	152.0690612792969	-917.287292480469	-186.8518524169922	173.0168762207032	-831.446472167969	-248.9809265136719	113.8447341918946	-880.1213989257815	-29.59867477416993	120.2878570556641	-825.3339843750002	-25.1174545288086	123.7339859008789	-863.346618652344	-55.25045394897462	101.2243881225586	-920.4691162109377	-349.4348449707032	798.680847167969	-591.1860351562501	-317.8194580078126	740.4257812500001	-595.4732666015626	-284.4941101074219	740.1520996093751	-600.2179565429689	-351.7252502441407	667.4877929687501	-621.5162353515626	-341.9788818359376	517.6825561523439	-648.8403930664064	-344.9817199707032	516.7391967773439	-780.2575683593752	-302.7435913085938	364.3132019042969	-752.3959960937501	-320.1740112304688	276.8829040527344	-691.4550170898439	-296.7412109375001	279.2505798339844	-733.9256591796876	-315.5995178222657	236.8113555908204	-769.3571777343752	-365.0604248046876	103.5271148681641	-727.1041259765626	-358.5434875488282	128.5968780517578	-810.582702636719	-433.1009216308595	84.0973587036133	-783.0752563476565	-209.6167449951172	53.88745880126955	-790.096862792969	-209.8167877197266	52.96790313720705	-748.3661499023439	-255.1958923339844	35.79177474975587	-702.0772705078126	
